<svg width="23" height="23" viewBox="0 0 23 23" fill="none" xmlns="http://www.w3.org/2000/svg">
<path d="M12.1196 0C12.614 0.0806428 13.1141 0.136325 13.6023 0.246249C17.1486 1.045 19.9729 4.03598 20.547 7.6265C20.6684 8.38685 20.6838 9.16448 20.7505 9.96515C20.8311 9.98531 20.9607 10.0151 21.0884 10.0511C22.1953 10.3636 22.9791 11.3562 22.9887 12.504C23.0022 14.1168 23.0051 15.7297 22.9892 17.3425C22.9753 18.7691 21.8343 19.9087 20.4097 19.9284C19.2366 19.9447 18.063 19.9351 16.8894 19.9313C16.417 19.9298 16.0969 19.6039 16.0969 19.1263C16.095 16.3398 16.0945 13.5533 16.0969 10.7668C16.0974 10.2882 16.4166 9.97043 16.8937 9.96755C17.5642 9.96323 18.2348 9.96611 18.9054 9.96611C18.9831 9.96611 19.0609 9.96611 19.1569 9.96611C19.2874 6.94152 18.2478 4.468 15.7014 2.81242C13.034 1.07812 10.2164 1.03156 7.49907 2.68329C4.81538 4.31439 3.70994 6.83736 3.83474 9.96611C4.29602 9.96611 4.74002 9.96611 5.1845 9.96611C5.48786 9.96611 5.79123 9.96323 6.09459 9.96707C6.57027 9.97283 6.89619 10.2896 6.89667 10.7629C6.89955 13.5576 6.89955 16.3518 6.89619 19.1464C6.89571 19.6082 6.57075 19.926 6.10851 19.9313C5.61507 19.937 5.12162 19.9327 4.6133 19.9327C4.6133 20.4478 4.6133 20.945 4.6133 21.4663C4.71506 21.4663 4.80866 21.4663 4.90226 21.4663C7.08147 21.4663 9.26068 21.4649 11.4399 21.4673C12.0351 21.4678 12.4258 22.0049 12.2041 22.5214C12.0639 22.8474 11.8009 23.0005 11.4447 23C10.1434 22.9986 8.8426 22.9995 7.54131 22.9995C6.34371 22.9995 5.14658 23 3.94898 22.9995C3.36482 22.999 3.06673 22.7005 3.06577 22.1153C3.06481 21.3982 3.06577 20.681 3.06577 19.9524C2.78305 19.9341 2.51185 19.937 2.24833 19.8957C1.08913 19.7157 0.263521 18.9035 0.0408002 17.7438C0.0336002 17.7059 0.0139201 17.6704 0 17.6334C0 15.8285 0 14.0237 0 12.2188C0.0163201 12.1675 0.0374402 12.1171 0.0489602 12.0643C0.216961 11.29 0.629763 10.6837 1.32529 10.3012C1.62049 10.1384 1.95457 10.0458 2.29969 9.90994C2.29969 9.73666 2.28193 9.52017 2.30305 9.30752C2.37553 8.57166 2.37361 7.81419 2.55649 7.10521C3.4757 3.54492 5.73267 1.26388 9.27844 0.28225C9.79636 0.139205 10.3412 0.0916832 10.874 0C11.2892 0 11.7044 0 12.1196 0ZM5.35586 11.4998C4.4525 11.4998 3.57458 11.4983 2.69713 11.5002C1.98817 11.5022 1.53361 11.9601 1.53313 12.6734C1.53169 14.1907 1.53169 15.7081 1.53313 17.2254C1.53409 17.9377 1.98961 18.3966 2.69761 18.3986C3.51218 18.401 4.32626 18.3995 5.14082 18.3986C5.20994 18.3986 5.27906 18.3904 5.35586 18.3861C5.35586 16.0897 5.35586 13.8091 5.35586 11.4998ZM17.6386 18.3995C18.5358 18.3995 19.4055 18.4005 20.2758 18.399C21.0039 18.3976 21.4595 17.9454 21.4604 17.2211C21.4619 15.7037 21.4623 14.1864 21.4604 12.6691C21.4595 11.9572 21.0035 11.5017 20.2921 11.4998C19.4775 11.4978 18.6634 11.4988 17.8489 11.4998C17.7802 11.4998 17.7111 11.5084 17.6391 11.5132C17.6386 13.812 17.6386 16.093 17.6386 18.3995Z" fill="#76BC21"/>
</svg>