<svg width="20" height="23" viewBox="0 0 20 23" fill="none" xmlns="http://www.w3.org/2000/svg">
<path d="M9.71122 0C9.9003 0 10.0899 0 10.279 0C10.2819 0.00887223 10.2819 0.0227351 10.2881 0.0255077C13.0474 1.39627 15.9604 2.29846 19.0289 2.70714C19.6827 2.7942 20.0056 3.22727 19.9999 3.74297C19.9771 5.78969 20.0068 7.8364 19.9823 9.88256C19.9737 10.6267 19.9401 11.3825 19.7978 12.1106C18.7482 17.4666 15.5703 21.0771 10.3172 22.9502C10.1224 23.0196 9.85588 23.0151 9.66054 22.9453C9.02326 22.7168 8.38086 22.485 7.78117 22.1789C3.64541 20.0707 1.1225 16.7791 0.227803 12.3147C0.123013 11.7923 0.0746053 11.2594 0 10.7315C0 8.2789 0 5.82684 0 3.37422C0.206731 2.92562 0.56552 2.70769 1.06726 2.70769C1.09516 2.70769 1.12364 2.7027 1.15154 2.69827C3.16133 2.39273 5.1267 1.91474 7.01746 1.18112C7.93152 0.827335 8.81425 0.396478 9.71122 0ZM1.81729 4.38732C1.81729 4.47604 1.81729 4.54868 1.81729 4.62077C1.81729 6.40852 1.80818 8.19683 1.82413 9.98459C1.82925 10.5358 1.85659 11.0942 1.95341 11.6359C2.76381 16.1735 5.35735 19.3282 9.72831 21.0943C9.91511 21.1697 10.0734 21.168 10.2654 21.0948C15.0896 19.2533 18.1599 14.8904 18.1724 9.84263C18.1764 8.1192 18.173 6.39577 18.173 4.67234C18.173 4.58195 18.173 4.49101 18.173 4.38843C17.9679 4.35183 17.784 4.31911 17.6 4.28584C15.023 3.81894 12.5491 3.04096 10.1748 1.95854C10.0746 1.91252 9.91283 1.91363 9.81203 1.95965C7.27317 3.12025 4.62154 3.92485 1.81729 4.38732Z" fill="#76BC21"/>
<path d="M8.95989 11.7335C9.08852 11.61 9.16664 11.5379 9.24124 11.4628C10.9311 9.76217 12.6175 8.05736 14.3168 6.36615C14.4801 6.20364 14.7132 6.06773 14.9353 6.01987C15.35 5.93005 15.7253 6.15342 15.9033 6.51565C16.0771 6.86902 16.0166 7.30039 15.7218 7.60295C15.0663 8.276 14.3996 8.93784 13.7382 9.60499C12.3949 10.9606 11.0509 12.3155 9.70938 13.6723C9.28236 14.1037 8.70908 14.1114 8.28499 13.6823C7.3076 12.6949 6.32551 11.7116 5.3581 10.7141C5.2089 10.5599 5.07733 10.3513 5.02682 10.1457C4.92226 9.7214 5.13254 9.32489 5.49907 9.13284C5.86735 8.93961 6.28028 8.99457 6.60216 9.31248C7.3123 10.0139 8.01304 10.7248 8.71495 11.4345C8.79718 11.5166 8.86415 11.6153 8.95989 11.7335Z" fill="#76BC21"/>
</svg>
