<svg width="335" height="53" viewBox="0 0 335 53" fill="none" xmlns="http://www.w3.org/2000/svg">
<g clip-path="url(#clip0_3_111)">
<path fill-rule="evenodd" clip-rule="evenodd" d="M27.9033 26.371C27.9033 28.7903 29.8929 30.7581 32.3517 30.7581H54.2051C54.4639 29.3387 54.5933 27.871 54.5933 26.371C54.5933 11.8065 42.6556 0 27.9195 0L27.9033 26.371Z" fill="#76BC21"/>
<path fill-rule="evenodd" clip-rule="evenodd" d="M31.1383 43.9677C21.3197 43.9677 13.345 36.0968 13.345 26.3871V3.53226C5.37035 8.09677 0 16.6129 0 26.371C0 40.9355 11.9539 52.9839 26.69 52.9839C37.2366 52.9839 42.8658 49.3387 47.767 43.9516H31.1383V43.9677Z" fill="#76BC21"/>
<path d="M78.4526 25.5323C79.8922 24.1613 81.2671 22.6935 81.2671 20.3065C81.2671 18.5484 79.8275 15.5645 74.4248 15.5645C73.5513 15.5645 72.7587 15.5968 72.0793 15.629C71.6102 15.6452 71.1896 15.6613 70.8661 15.6613L70.4132 15.6452C69.6853 15.6129 68.2618 15.5645 67.1619 15.5645C66.9354 15.5645 66.3369 15.5645 66.3369 16.0968C66.3369 16.6613 67.5016 16.5484 67.9383 16.6613C68.8603 16.8387 69.0544 17.1774 69.103 18.0806C69.1677 19.0323 69.1677 19.8548 69.1677 24.4677V29.6935C69.1677 32.4839 69.1677 34.8871 69.0059 36.1129C68.8603 37 68.7148 37.4355 68.278 37.5C67.9221 37.5806 67.5986 37.629 67.3722 37.629C67.0001 37.629 66.806 37.871 66.806 38.0968C66.806 38.629 67.4045 38.629 67.631 38.629C68.3265 38.629 69.5721 38.5806 70.3 38.5645L70.85 38.5484C70.947 38.5484 71.4485 38.5645 72.0793 38.5968C73.1954 38.6452 74.7321 38.7097 75.2012 38.7097C81.1377 38.7097 83.8391 35.1935 83.8391 31.9516C83.8391 28.371 80.6686 26.3226 78.4526 25.5323ZM74.0689 16.9839C77.0938 16.9839 78.1776 19.4839 78.1776 21.8065C78.1776 22.871 77.7894 23.9032 77.0776 24.6129C76.4953 25.2419 76.1232 25.2903 74.3116 25.2903C73.0175 25.2903 72.4675 25.2097 72.3867 25.1452L72.5322 17.1452C73.0175 17.0161 73.6645 16.9839 74.0689 16.9839ZM72.3867 26.6774C73.7292 26.6774 74.538 26.6935 74.813 26.7419C75.5571 26.8226 76.3335 26.9032 77.4011 27.5484C80.1348 29.2581 80.426 32.1129 80.426 33.2581C80.426 37.0806 76.5438 37.1935 76.1071 37.1935C75.2821 37.1935 74.0689 37.0806 73.341 36.7742C72.5161 36.4032 72.4999 36.1774 72.4028 34.6935C72.3705 34.2581 72.3705 30.5323 72.3705 28.3064V26.6774H72.3867Z" fill="#282828"/>
<path d="M108.232 37.6452C107.989 37.6452 107.52 37.6129 107.003 37.4678C106.582 37.3548 105.644 37.129 104.382 34.3387C102.942 31.0645 99.8367 23.6936 98.0573 19.4516C97.378 17.8548 96.8927 16.7097 96.7633 16.4032C96.3751 15.5 96.1971 15.1452 95.7766 15.1452C95.356 15.1452 95.1781 15.5 94.7898 16.4839L87.349 34.9516C86.7343 36.5 86.1358 37.4355 84.8579 37.5645C84.5991 37.5968 84.1462 37.629 83.9197 37.629C83.5153 37.629 83.3374 37.8549 83.3374 38.0968C83.3374 38.629 83.9521 38.629 84.2432 38.629C85.2785 38.629 86.4593 38.5807 87.2034 38.5645C88.0122 38.5323 88.0931 38.5484 88.7725 38.5807C89.3386 38.5968 90.0342 38.629 90.5033 38.629C91.1503 38.629 91.2959 38.3387 91.2959 38.0968C91.2959 37.9516 91.2312 37.629 90.665 37.629H90.3415C89.9533 37.629 89.4033 37.4516 89.4033 37.0645C89.4033 36.5484 89.5651 35.8548 89.8401 35.1613L91.862 29.8548H98.9147L101.972 37.1774C102.037 37.3226 102.053 37.4516 101.988 37.5645C101.551 37.6452 101.519 37.9678 101.519 38.0645C101.519 38.5 101.972 38.5161 102.781 38.5645C105.045 38.6129 107.439 38.6129 107.925 38.6129C108.167 38.6129 108.879 38.6129 108.879 38.0807C108.863 37.7903 108.652 37.6452 108.232 37.6452ZM98.2353 28.1936H92.4605L95.2589 20.4839L98.2353 28.1936Z" fill="#282828"/>
<path d="M136.685 15.5645C135.795 15.5645 135.035 15.5968 134.501 15.629C133.968 15.6613 133.887 15.6613 133.207 15.629C132.528 15.5968 131.493 15.5645 130.506 15.5645C130.166 15.5645 129.552 15.5645 129.552 16.0645C129.552 16.2258 129.616 16.5807 130.118 16.5807C130.344 16.5807 131.088 16.6129 131.654 16.7258C132.415 16.9032 132.657 17.2742 132.706 19.2581L133.046 33.6452C132.496 33.1291 131.703 32.3226 130.765 31.4032C129.277 29.9194 127.449 28.0968 125.702 26.3871C120.655 21.4839 115.786 16.6936 115.268 16.1774L114.993 15.9032C113.489 14.3871 113.263 15.6613 113.263 16.9194L113.23 33.9678C113.23 36.7581 113.02 37.3226 112.454 37.4516C112.001 37.5968 111.451 37.6291 111.192 37.6291C110.804 37.6291 110.642 37.8549 110.642 38.0968C110.642 38.6291 111.192 38.6291 111.467 38.6291C112.486 38.6291 113.473 38.5807 114.071 38.5645L114.621 38.5484L115.09 38.5645C115.689 38.5968 116.757 38.6291 118.099 38.6291C118.342 38.6291 118.989 38.6291 118.989 38.0968C118.989 37.8549 118.811 37.6291 118.423 37.6291C118.148 37.6291 117.452 37.5968 116.87 37.4516C116.223 37.2742 115.883 36.742 115.802 34.2903L115.398 20.8065C116.87 22.3065 120.105 25.5645 123.421 28.8065C126.915 32.2097 131.622 36.5807 131.978 36.871C133.87 38.5807 134.178 38.8549 134.566 38.8549C135.165 38.8549 135.165 38.242 135.165 36.4355L135.213 19.0161C135.213 17.1774 135.375 16.8065 136.2 16.6613C136.556 16.5645 136.782 16.5645 136.928 16.5645C137.381 16.5645 137.575 16.3065 137.575 16.0484C137.575 15.5645 136.976 15.5645 136.685 15.5645Z" fill="#282828"/>
<path d="M160.803 32.6613C160.318 32.6613 160.221 33.0968 160.189 33.3387C160.108 33.8226 159.703 35.0807 159.056 35.6936C157.811 36.8548 155.967 37.0968 153.573 37.0968C146.358 37.0968 142.04 31.7097 142.04 26.5161C142.04 24.0161 142.379 21.1613 144.886 18.9678C146.488 17.5645 148.882 16.871 152.214 16.871C155.142 16.871 157.568 17.7097 158.571 18.5C159.331 19.0807 159.833 20.2097 159.833 21.3065C159.833 21.6452 159.833 22.2097 160.383 22.2097C160.9 22.2097 160.949 21.629 160.981 21.3226C160.998 21.129 161.014 20.6936 161.014 20.1936C161.03 19.5645 161.046 18.8065 161.078 18.2419C161.111 17.6129 161.159 17.2258 161.192 16.9678C161.224 16.7903 161.24 16.6613 161.24 16.5484C161.24 16 160.723 15.9355 160.528 15.9194C159.558 15.871 158.604 15.7097 157.229 15.4839C155.271 15.1613 153.217 15.1129 152.441 15.1129C148.008 15.1129 144.676 16.1774 142.266 18.371C139.5 20.8871 138.497 24.3387 138.497 26.7258C138.497 30.5 139.856 33.5484 142.557 35.7419C145.356 38 148.753 39.0161 153.573 39.0161C155.546 39.0161 158.167 38.8387 159.574 38.3226C160.205 38.0645 160.351 37.9516 160.593 37.2742C160.933 36.2419 161.337 33.6129 161.337 33.371C161.321 32.8549 161.046 32.6613 160.803 32.6613Z" fill="#282828"/>
<path d="M176.251 15.1452C166.643 15.1452 163.068 22.4678 163.068 27.0807C163.068 32.8387 167.144 39.0484 176.057 39.0484C183.789 39.0484 189.418 33.8065 189.418 26.5968C189.418 19.7581 184.129 15.1452 176.251 15.1452ZM176.025 16.7419C180.667 16.7419 185.682 20.0968 185.682 27.4194C185.682 36.8548 178.402 37.3387 176.947 37.3387C170.945 37.3387 166.756 32.7742 166.756 26.2419C166.772 20.2903 170.234 16.7419 176.025 16.7419Z" fill="#282828"/>
<path d="M212.712 15.5645H211.353C210.01 15.5645 208.603 15.5968 207.729 15.629L206.937 15.6452L206.484 15.629C205.756 15.5968 204.333 15.5484 203.249 15.5484C203.039 15.5484 202.424 15.5484 202.424 16.0807C202.424 16.3549 202.666 16.5645 202.974 16.5645C203.265 16.5645 203.799 16.5968 204.041 16.6613C204.963 16.8387 205.141 17.1774 205.19 18.0807C205.255 19.0323 205.255 19.8549 205.255 24.4678V29.6936C205.255 32.4839 205.255 34.8871 205.109 36.1129C204.98 36.9678 204.834 37.4355 204.381 37.5C204.122 37.5645 203.734 37.629 203.475 37.629C203.087 37.629 202.909 37.871 202.909 38.0968C202.909 38.629 203.524 38.629 203.734 38.629C204.43 38.629 205.659 38.5807 206.403 38.5645L206.969 38.5484C207.05 38.5484 207.357 38.5645 207.827 38.6129C209.218 38.7097 212.113 38.9194 214.232 38.9194C218.438 38.9194 221.948 37.7097 224.342 35.4194C226.639 33.2097 227.965 30.0807 227.965 26.8226C227.965 22.9516 226.186 20.4516 224.714 19.0484C221.414 15.9678 216.788 15.5645 212.712 15.5645ZM214.297 37.3065C210.56 37.3065 209.331 36.7097 208.959 36.2258C208.894 36.1452 208.716 35.7581 208.668 34.1452C208.635 33.5968 208.587 30.9032 208.587 27.7097V24.0161C208.587 21.7258 208.587 18.6936 208.619 17.6936C208.619 17.4678 208.651 17.4355 208.846 17.3549C209.024 17.2742 210.14 17.1774 210.851 17.1774C215.106 17.1774 218.503 17.7258 221.333 20.4516C222.482 21.5484 224.391 23.9194 224.391 27.7258C224.391 30.5323 223.404 33.2419 221.883 34.6129C220.023 36.3226 217.257 37.3065 214.297 37.3065Z" fill="#282828"/>
<path d="M243.639 34.0323C243.17 34.0323 243.089 34.4839 243.057 34.7097C242.831 35.8549 242.507 36.3387 241.779 36.6291C240.97 36.9355 239.579 36.9355 238.738 36.9355C235.584 36.9355 235.325 36.6129 235.228 34.7742C235.212 34.3226 235.212 32.4194 235.228 31.0162V29.6936L235.163 27.1774C235.778 27.1774 238.981 27.242 239.822 27.3065C241.051 27.4355 241.181 27.9032 241.262 28.1452C241.375 28.4839 241.375 28.7742 241.375 29.0323C241.375 29.371 241.601 29.5968 241.909 29.5968C242.426 29.5968 242.426 29 242.426 28.7258C242.426 28.5162 242.491 27.4355 242.556 26.8549C242.62 26.2581 242.701 25.8387 242.75 25.5645C242.782 25.3871 242.814 25.2581 242.814 25.1613C242.814 24.7581 242.556 24.6291 242.345 24.6291C242.103 24.6291 241.957 24.8065 241.666 25.0968C241.44 25.3065 241.067 25.371 240.291 25.4355C239.757 25.4839 237.266 25.5 235.212 25.5L235.115 17.2742C235.584 17.2742 239.062 17.3065 239.563 17.371C241.342 17.5484 241.504 17.9032 241.65 18.2258C241.779 18.5 241.812 18.9516 241.812 19.1613C241.812 19.7742 242.216 19.8387 242.378 19.8387C242.523 19.8387 242.782 19.7742 242.879 19.2742C242.928 19.0323 242.976 18.3226 243.025 17.8065L243.057 17.2742C243.122 16.8065 243.187 16.5 243.235 16.2742C243.267 16.0968 243.3 15.9678 243.3 15.8387C243.3 15.3226 242.976 15.2903 242.879 15.2903C242.717 15.2903 242.604 15.3387 242.345 15.4355C242.087 15.4839 241.569 15.5484 241.003 15.5807C240.243 15.5968 233.902 15.5968 233.53 15.5968C233.513 15.5968 233.513 15.5968 233.513 15.5968L233.093 15.6452C232.365 15.6129 230.941 15.5645 229.842 15.5645C229.647 15.5645 229.033 15.5645 229.033 16.0968C229.033 16.6613 230.197 16.5484 230.634 16.6613C231.556 16.8387 231.75 17.1774 231.799 18.0807C231.863 19.0323 231.863 19.8549 231.863 24.4678V29.6936C231.863 32.4839 231.863 34.8871 231.686 36.1129C231.556 37.0968 231.378 37.4355 230.974 37.5C230.715 37.5645 230.343 37.6291 230.052 37.6291C229.68 37.6291 229.502 37.871 229.502 38.0968C229.502 38.6291 230.084 38.6291 230.311 38.6291C231.006 38.6291 232.236 38.5807 232.963 38.5645L233.53 38.5484C233.805 38.5484 234.209 38.5645 234.759 38.5807C236.037 38.6291 238.156 38.7097 241.601 38.7097C242.895 38.7097 243.381 38.7097 243.656 37.7258C243.817 37.0968 244.092 35.0484 244.092 34.7742C244.125 34.5807 244.125 34.0323 243.639 34.0323Z" fill="#282828"/>
<path d="M273.16 33.9194C272.675 33.9194 272.594 34.3871 272.562 34.5484C272.481 35.0806 272.157 35.7742 271.785 36.1935C271.106 36.9355 269.796 36.9839 268.032 36.9839C265.46 36.9839 264.733 36.7581 264.312 36.3548C263.778 35.8871 263.697 33.6774 263.697 29.7581V24.4677C263.697 19.8548 263.697 19.0323 263.746 18.0806C263.811 17.0806 264.037 16.7742 264.797 16.6613C265.169 16.5968 265.606 16.5645 265.833 16.5645C266.156 16.5645 266.383 16.371 266.383 16.0806C266.383 15.5484 265.768 15.5484 265.558 15.5484C264.846 15.5484 263.422 15.5968 262.614 15.6129L262.015 15.629L261.578 15.6129C260.85 15.5806 259.427 15.5323 258.311 15.5323C258.101 15.5323 257.486 15.5323 257.486 16.0645C257.486 16.3387 257.728 16.5484 258.036 16.5484C258.311 16.5484 258.845 16.5806 259.103 16.6452C260.025 16.8226 260.203 17.1613 260.252 18.0645C260.333 19.0161 260.333 19.8387 260.333 24.4516V29.6774C260.333 32.4677 260.333 34.871 260.171 36.0968C260.025 37 259.896 37.4194 259.443 37.4839C259.2 37.5484 258.812 37.6129 258.521 37.6129C258.149 37.6129 257.971 37.8548 257.971 38.0806C257.971 38.6129 258.553 38.6129 258.78 38.6129C259.427 38.6129 260.446 38.5806 261.19 38.5484C261.578 38.5323 261.886 38.5161 261.983 38.5161C262.727 38.5161 263.503 38.5484 264.441 38.5806C265.93 38.629 267.871 38.6935 270.75 38.6935C272.432 38.6935 272.804 38.6129 273.095 37.6935C273.37 36.8065 273.597 34.9839 273.597 34.629C273.645 34.4355 273.645 33.9194 273.16 33.9194Z" fill="#282828"/>
<path d="M287.33 15.1452C277.722 15.1452 274.147 22.4678 274.147 27.0807C274.147 32.8387 278.207 39.0484 287.136 39.0484C294.884 39.0484 300.513 33.8065 300.513 26.5968C300.513 19.7581 295.224 15.1452 287.33 15.1452ZM287.104 16.7419C291.762 16.7419 296.761 20.0968 296.761 27.4194C296.761 36.8548 289.482 37.3387 288.01 37.3387C282.008 37.3387 277.835 32.7742 277.835 26.2419C277.851 20.2903 281.313 16.7419 287.104 16.7419Z" fill="#282828"/>
<path d="M309.782 16.0968C309.782 15.5645 309.167 15.5645 308.957 15.5645C308.261 15.5645 307.016 15.6129 306.288 15.629L305.754 15.6452L305.317 15.629C304.59 15.5968 303.166 15.5484 302.05 15.5484C301.84 15.5484 301.225 15.5484 301.225 16.0807C301.225 16.6452 302.39 16.5484 302.843 16.6452C303.765 16.8226 303.959 17.1613 304.007 18.0645C304.072 19.0161 304.072 19.8387 304.072 24.4516V33.0484C304.072 40.8387 302.972 42.2419 301.031 44.0323C300.853 44.1936 300.352 44.6129 299.931 44.8387C299.607 45.0161 299.349 45.1774 299.349 45.5323C299.349 45.8065 299.575 46.0161 299.866 46.0161L300.238 45.9355C300.562 45.7581 301.096 45.4355 301.532 45.1613C304.185 43.4839 305.706 42.0484 306.417 40.4839C307.437 38.3226 307.437 36.4839 307.437 31.5807V24.4355C307.437 19.8226 307.437 19 307.485 18.0484C307.566 17.0645 307.776 16.7419 308.456 16.629C308.828 16.5645 309.022 16.5323 309.216 16.5323C309.556 16.5645 309.782 16.371 309.782 16.0968Z" fill="#282828"/>
<path d="M334.369 37.6452C334.127 37.6452 333.641 37.6129 333.124 37.4678C332.703 37.3549 331.749 37.1291 330.519 34.3387C329.015 30.9516 325.764 23.2097 324.001 19.0645C323.418 17.6774 323.014 16.6936 322.884 16.4194C322.496 15.5162 322.302 15.1613 321.898 15.1613C321.461 15.1613 321.267 15.5807 320.895 16.5L313.47 34.9678C312.855 36.5162 312.241 37.4355 310.963 37.5807C310.704 37.6129 310.251 37.6452 310.041 37.6452C309.62 37.6452 309.442 37.871 309.442 38.1129C309.442 38.6452 310.089 38.6452 310.364 38.6452C311.4 38.6452 312.564 38.5968 313.325 38.5807C313.68 38.5645 313.955 38.5645 314.052 38.5645C314.198 38.5645 314.522 38.5807 314.894 38.5968C315.444 38.6129 316.139 38.6452 316.608 38.6452C317.255 38.6452 317.401 38.3549 317.401 38.1129C317.401 37.9678 317.336 37.6452 316.77 37.6452H316.43C316.042 37.6452 315.492 37.4678 315.492 37.0807C315.492 36.5645 315.654 35.8871 315.929 35.1774L317.951 29.871H325.003L328.045 37.1936C328.109 37.3387 328.125 37.4516 328.077 37.5807C327.624 37.6613 327.592 37.9839 327.592 38.0807C327.592 38.5162 328.061 38.5323 328.886 38.5807C331.134 38.6291 333.528 38.6291 334.03 38.6291C334.66 38.6291 334.984 38.4516 334.984 38.0968C335 37.8871 334.903 37.6452 334.369 37.6452ZM324.356 28.1936H318.566L321.364 20.5L324.356 28.1936Z" fill="#282828"/>
</g>
<defs>
<clipPath id="clip0_3_111">
<rect width="335" height="53" fill="white"/>
</clipPath>
</defs>
</svg>
