<svg width="23" height="23" viewBox="0 0 23 23" fill="none" xmlns="http://www.w3.org/2000/svg">
<path d="M11.0018 0C11.3338 0 11.6652 0 11.9972 0C12.4899 0.0598225 12.986 0.0974884 13.4742 0.182791C18.0916 0.992056 21.7363 4.49942 22.7273 9.0908C22.847 9.64582 22.9108 10.2136 23 10.7752C23 11.2544 23 11.733 23 12.2121C22.908 12.792 22.8409 13.3775 22.7196 13.9514C21.4054 20.1779 15.02 24.191 8.84188 22.6816C2.60111 21.1572 -1.23092 14.9905 0.360313 8.76898C1.55692 4.0923 4.64848 1.23688 9.3928 0.221565C9.92044 0.108567 10.4647 0.0720085 11.0018 0ZM11.5272 1.78027C6.1987 1.74925 1.80467 6.0825 1.76809 11.4061C1.73095 16.7592 6.0618 21.191 11.3659 21.2159C17.0158 21.2425 21.1677 16.7868 21.222 11.5784C21.2774 6.18775 16.9244 1.81184 11.5272 1.78027Z" fill="#76BC21"/>
<path d="M11.46 6C13.0077 5.99886 14.3475 6.87613 14.8131 8.22248C15.1945 9.32461 14.9827 10.3379 14.2643 11.222C13.9062 11.6627 13.4816 12.0486 13.0748 12.446C12.6113 12.8991 12.286 13.3921 12.3087 14.0992C12.3264 14.6457 11.9146 15.01 11.4107 14.9998C10.9162 14.9895 10.5781 14.599 10.5521 14.0491C10.4983 12.9134 10.9756 12.0219 11.7361 11.2545C12.0382 10.9493 12.3514 10.6556 12.654 10.3516C13.052 9.95196 13.3663 9.50792 13.1657 8.89594C12.9539 8.25038 12.4512 7.95378 11.8347 7.84846C10.7644 7.66572 10.0842 8.09895 9.73443 9.16009C9.56592 9.67017 9.09641 9.94058 8.62912 9.79655C8.1452 9.6474 7.89853 9.15724 8.03932 8.62326C8.46615 7.00251 9.77157 6.00114 11.46 6Z" fill="#76BC21"/>
<path d="M10.9933 17C10.4366 16.9984 10.0038 16.7806 10 16.4996C9.99625 16.2106 10.4372 15.9941 11.0178 16.0001C11.5827 16.0058 12.0111 16.2262 11.9998 16.505C11.9885 16.7848 11.5475 17.0016 10.9933 17Z" fill="#76BC21"/>
</svg>
